<svg xmlns="http://www.w3.org/2000/svg" viewBox="0 0 612.54 180.42"><defs><style>.cls-1{fill:#fff;}</style></defs><g id="Calque_2" data-name="Calque 2"><g id="Calque_1-2" data-name="Calque 1"><path class="cls-1" d="M231.88,85.44V83.86c0-18.36,11.74-24.19,25.13-24.19,6.7,0,11.88,1.29,14.55,2.66v9.94A35.57,35.57,0,0,0,258.88,70c-10.29,0-13,5.33-13,13.47v2.16c0,9,1.94,14.26,10.37,14.26a16.08,16.08,0,0,0,5.18-.8V91.56h-6.91V82.71H274v23.76a49.64,49.64,0,0,1-17.35,3.1C241.31,109.57,231.88,103.23,231.88,85.44Z"/><path class="cls-1" d="M279.69,90.63v-.94c0-11.45,7.12-18.65,18.21-18.65C310.36,71,315,78,315,90.2v3.16h-22.9c.72,5.84,4,7.49,10.3,7.49a30,30,0,0,0,11.09-2.23v7.56c-2.81,1.66-7.42,3.31-14.26,3.31C286.1,109.49,279.69,102.87,279.69,90.63Zm12.38-4.18H303.3c0-5.4-1.8-7.34-5.4-7.34C295.17,79.11,292.58,80.69,292.07,86.45Z"/><path class="cls-1" d="M323.53,98.76V80.26h-4.6v-8.5h4.6V63h12.32v8.78h7.49v8.5h-7.49V97c0,2.6,1.08,3.39,4,3.39a19.09,19.09,0,0,0,3.67-.36v7.92a19.81,19.81,0,0,1-8.21,1.44C327.93,109.35,323.53,106.9,323.53,98.76Z"/><path class="cls-1" d="M369,118.21v-8.07a25.2,25.2,0,0,0,4,.43c3.38,0,5.25-.86,6.19-3.31l.57-1.58-13.75-34h12.82l7,20.09h.15l7.27-20.09h11.52l-14.33,38.16c-2.52,7.35-6.34,9.51-14.26,9.51A21.57,21.57,0,0,1,369,118.21Z"/><path class="cls-1" d="M408.06,90.84V90C408.06,77.31,416.19,71,427,71c12.31,0,18.93,6.48,18.93,18.58v.86c0,12.75-8.2,19-18.93,19C414.61,109.49,408.06,102.72,408.06,90.84Zm25.27.22v-1.3c0-8.78-2.66-10.36-6.41-10.36-4,0-6.33,2.44-6.33,10v1.37c0,8.57,2.66,10.3,6.48,10.3S433.33,98.76,433.33,91.06Z"/><path class="cls-1" d="M451.83,98.76v-27H464V96.17c0,3,1.3,4,4.54,4a14.66,14.66,0,0,0,5.62-1.29V71.76h12.16v37.09h-10.8l-.79-3.24h-.36a17.15,17.15,0,0,1-11.23,3.88C456.08,109.49,451.83,106.33,451.83,98.76Z"/><path class="cls-1" d="M505.33,118.28v-7.71a14,14,0,0,0,2.73.29c3.39,0,5-1.29,5-4.53V71.69h12.25v35.86c0,7.13-3.6,12-13.18,12A16,16,0,0,1,505.33,118.28ZM513,58.15h12.39v9.36H513Z"/><path class="cls-1" d="M531.75,90.84V90c0-12.67,8.14-18.94,18.94-18.94,12.31,0,18.94,6.48,18.94,18.58v.86c0,12.75-8.21,19-18.94,19C538.3,109.49,531.75,102.72,531.75,90.84Zm25.28.22v-1.3c0-8.78-2.67-10.36-6.41-10.36-4,0-6.34,2.44-6.34,10v1.37c0,8.57,2.66,10.3,6.48,10.3S557,98.76,557,91.06Z"/><path class="cls-1" d="M575.67,107V57.29h12.24V74.43h.36A15.83,15.83,0,0,1,598.79,71c7,0,13.75,4.11,13.75,17.57v.94c0,14.33-7.13,20-20.67,20A46.94,46.94,0,0,1,575.67,107ZM600,91V89.91c0-7.64-2.38-9.51-6.84-9.51a12.22,12.22,0,0,0-5.26,1.23v18.65a11.1,11.1,0,0,0,4.68.86C596.63,101.14,600,99.2,600,91Z"/><g id="X9ovYR.tif"><path class="cls-1" d="M213.51,95.92c-.36.09-.33.4-.36.67a14.43,14.43,0,0,1-1.73,5.64,23,23,0,0,1-5.08,6.3c-.87.75-1.72,1.53-2.64,2.23a55.08,55.08,0,0,1-11.14,6.35c-1.91.85-3.85,1.61-5.8,2.35a4,4,0,0,1-5.31-2.24,3.62,3.62,0,0,1,2.22-4.61A63.64,63.64,0,0,0,197,106.09a22,22,0,0,0,7-7,8.81,8.81,0,0,0,.39-8.52,22.72,22.72,0,0,0-7.38-8.36,57.3,57.3,0,0,0-5.48-3.65,90.51,90.51,0,0,0-13-6.15c-2.59-1-5.19-1.94-7.83-2.79-5.95-1.91-12-3.49-18.08-4.8s-12-2.33-18-3.18q-7.73-1.09-15.5-1.75c-4.56-.37-9.12-.62-13.69-.84-4.81-.23-9.64-.2-14.46-.24a2.86,2.86,0,0,0-2.53,1.27c-1.27,1.65-2.5,3.34-3.78,5-1.7,2.16-3.28,4.39-4.87,6.63s-3,4.21-4.39,6.35c-1.68,2.51-3.36,5-4.86,7.63-.15.26-.42.44-.55.7-.36.71-1.13,1.36-1,2.12a9,9,0,0,0,1.3,3.09,4.8,4.8,0,0,1,.3.48c1.08,2.7,2.53,5.24,3.84,7.83,1.52,3,3.17,6,4.88,8.94,1.43,2.47,2.92,4.9,4.39,7.33s3.21,5,4.86,7.53c1.13,1.68,2.32,3.32,3.51,5,1.82,2.51,3.64,5,5.52,7.48,1.47,1.92,3,3.8,4.56,5.62q3.44,4,7,7.86c1.43,1.55,2.93,3,4.46,4.5a121.09,121.09,0,0,0,9.36,8.17,72.53,72.53,0,0,0,9.16,6.15,35.57,35.57,0,0,0,11.58,4.37c3.52.56,6.9.18,9.79-2.08a14,14,0,0,0,4-5.39,30.87,30.87,0,0,0,2.45-11.69,80.24,80.24,0,0,0-1.07-17.37c-.23-1.38-.39-2.78-.7-4.15-.74-3.26-1.4-6.55-2.35-9.75-.74-2.47-1.26-5-2.2-7.41s-1.41-4.62-2.36-6.84c-.77-1.79-1.25-3.69-2.08-5.44s-1.43-3.87-2.36-5.7c-.85-1.66-1.44-3.43-2.25-5.11-1.55-3.21-3.05-6.44-4.7-9.59-.55-1.06-1.12-2.05-.81-3.24a4.14,4.14,0,0,1,6.51-2.1A5,5,0,0,1,147,78.79c1.13,2.62,2.53,5.11,3.74,7.69.78,1.67,1.42,3.4,2.27,5,.94,1.78,1.48,3.72,2.37,5.5s1.35,3.6,2.13,5.34c1,2.24,1.59,4.62,2.51,6.87s1.45,4.83,2.32,7.2c1,2.74,1.46,5.62,2.28,8.4A122.54,122.54,0,0,1,167,137.08a75.41,75.41,0,0,1,.94,18,25.38,25.38,0,0,1-.65,5.15,47,47,0,0,1-2,7.12,23.93,23.93,0,0,1-4.72,7.37,19,19,0,0,1-13.23,5.68,30.56,30.56,0,0,1-11.62-2,57.31,57.31,0,0,1-11.9-6.14c-2.44-1.61-4.78-3.32-7.06-5.14s-4.64-3.85-6.85-5.91q-3.59-3.35-6.94-6.91c-1.6-1.7-3.17-3.41-4.7-5.17s-3.11-3.62-4.61-5.48-3-3.77-4.47-5.69c-1.6-2.09-3.13-4.22-4.65-6.37s-3.14-4.55-4.66-6.87-3.1-4.84-4.59-7.3c-1.61-2.65-3.15-5.33-4.66-8q-2.41-4.31-4.66-8.69c-.61-1.21-1.19-2.45-1.89-3.72a12.18,12.18,0,0,0-1,1.53c-1.24,2.7-2.7,5.28-4,8-.86,1.84-1.6,3.73-2.52,5.53-.82,1.6-1.31,3.31-2.07,4.92-1,2.22-1.65,4.59-2.57,6.85s-1.43,4.72-2.22,7.05a89.15,89.15,0,0,0-2.5,11.4A40.48,40.48,0,0,0,47,157a17.7,17.7,0,0,0,2.15,6.27,11.07,11.07,0,0,0,9.48,5.49,27.63,27.63,0,0,0,10.26-1.78,62.48,62.48,0,0,0,10.3-4.78c1.91-1.09,3.75-2.29,5.62-3.43a4,4,0,0,1,6,2.15,3.73,3.73,0,0,1-1.69,4.18c-1.9,1.14-3.76,2.36-5.7,3.46a60.41,60.41,0,0,1-17.28,6.95,26.25,26.25,0,0,1-14.41-.59,17,17,0,0,1-5.2-3,20.82,20.82,0,0,1-6-8.62c-1.7-4.33-2-8.81-2-13.36A65.85,65.85,0,0,1,40,136.66a92.87,92.87,0,0,1,2.38-9.32c.72-2.24,1.28-4.54,2.19-6.72S46,116.29,47,114.24c.82-1.74,1.4-3.57,2.21-5.31,1.56-3.29,3.06-6.62,4.69-9.87,1.45-2.92,3-5.77,4.61-8.62.32-.59.72-1.15,1.08-1.74a1.42,1.42,0,0,0,.09-1.46c-1.13-2.35-2-4.81-3-7.2-.78-1.83-1.31-3.73-2.08-5.54-1-2.41-1.65-4.94-2.54-7.39-.48-1.34-.9-2.69-1.27-4.06-.14-.5-.34-.55-.82-.46C46.36,63.22,42.83,64,39.32,65a103.53,103.53,0,0,0-13.91,4.62,50.15,50.15,0,0,0-10.7,5.93,21.71,21.71,0,0,0-3.62,3.36,10.65,10.65,0,0,0-2.86,6.07,10.12,10.12,0,0,0,2.21,7.38,29.09,29.09,0,0,0,2.54,3,49.81,49.81,0,0,0,11.43,8c1.47.79,3.08,1.31,4.35,2.5a3.62,3.62,0,0,1,0,4.81,4.65,4.65,0,0,1-5.62.58,93,93,0,0,1-10.78-6.33A27.26,27.26,0,0,1,10,103a37.13,37.13,0,0,1-6.31-6.7A26.92,26.92,0,0,1,1.32,92,14.65,14.65,0,0,1,.79,81.13a18.67,18.67,0,0,1,5.09-8c.8-.75,1.55-1.54,2.39-2.25a52.06,52.06,0,0,1,12.4-7.43A98,98,0,0,1,34.16,58.6a132.91,132.91,0,0,1,13.47-3.16c.73-.13,1-.32.81-1.17-.42-1.62-.65-3.29-1-4.93a87.81,87.81,0,0,1-2-21.63,41.91,41.91,0,0,1,1.53-11.09,27.76,27.76,0,0,1,2.29-5.89,22.26,22.26,0,0,1,4.49-5.85A18.7,18.7,0,0,1,63.89.2,28.06,28.06,0,0,1,76.64,1.72a50.14,50.14,0,0,1,9.55,4.42c2.28,1.34,4.49,2.75,6.63,4.3.8.58,1.6,1.16,2.36,1.79,2.35,1.93,2,5-.76,6.24a4,4,0,0,1-4.15-.4c-1.54-1.09-3-2.24-4.62-3.3C81,11.69,76.21,9,70.72,7.85a15,15,0,0,0-7.2,0,9.6,9.6,0,0,0-3,1.38,12.62,12.62,0,0,0-3.38,3.56,24.55,24.55,0,0,0-2.8,7.33c-1.48,5.93-1.24,11.91-.63,17.88a126.57,126.57,0,0,0,2.47,14.61c.26,1.16.43,1.25,1.52,1.09,3.65-.53,7.32-.93,11-1.27,5.4-.51,10.81-.81,16.24-1a1.09,1.09,0,0,0,.78-.35c1.27-1.26,2.31-2.71,3.48-4.05,2-2.25,4-4.46,6-6.65,2.23-2.41,4.58-4.73,7-7s4.55-4.3,6.91-6.35c3-2.61,6.09-5.13,9.28-7.51,3-2.21,6-4.31,9.21-6.23A77.9,77.9,0,0,1,139,7.5a39.38,39.38,0,0,1,15.05-3.25,20.6,20.6,0,0,1,10.29,2.56A18.69,18.69,0,0,1,171.51,14a29.08,29.08,0,0,1,2.35,6.2c1.34,4.49,1.19,9.07,1,13.66a31.94,31.94,0,0,1-.56,5.17c-.4,1.85-.67,3.72-1.06,5.56-.47,2.2-3,3.27-5,2.67-2.19-.65-3.12-2.33-2.67-4.67a66.47,66.47,0,0,0,1.37-13.7,27.93,27.93,0,0,0-1.27-8.71A12.87,12.87,0,0,0,161.5,14a11.48,11.48,0,0,0-6.76-2.3,26.83,26.83,0,0,0-9.63,1.59A62.51,62.51,0,0,0,133.06,19a103.28,103.28,0,0,0-9.31,6.22c-2.34,1.73-4.61,3.54-6.84,5.41q-3.63,3-7.08,6.29t-6.91,6.82c-2.14,2.2-4.22,4.46-6.27,6.74-.2.22-.36.47-.64.83.81,0,1.48.09,2.15.1q7.7.1,15.36.6,7.08.47,14.15,1.25c4.32.48,8.63,1,12.92,1.72,6.46,1,12.88,2.26,19.24,3.81a175.31,175.31,0,0,1,21.49,6.59q4.19,1.62,8.25,3.55a75.88,75.88,0,0,1,10.31,5.84,47.33,47.33,0,0,1,6.2,5,30.77,30.77,0,0,1,5.12,6.49,16,16,0,0,1,1.94,6c0,.31,0,.69.37.84ZM65,79.54c4.47-7,9.14-13.7,14.22-20.35-1.4.07-2.52.11-3.64.19-5.27.4-10.52.87-15.76,1.59-1.32.18-1.32.15-.93,1.33.8,2.5,1.52,5,2.4,7.51,1.1,3.08,2.32,6.1,3.43,9.16C64.79,79.1,64.87,79.21,65,79.54Z"/><path class="cls-1" d="M107.35,102.85A12.52,12.52,0,0,1,98.28,99a12.69,12.69,0,0,1-2.42-4,8.3,8.3,0,0,1-.52-5.3,11.37,11.37,0,0,1,5.08-7.45,12.54,12.54,0,0,1,7.1-2,12.08,12.08,0,0,1,8.57,3.45c3,3,4.22,6.49,3.11,10.56a11.25,11.25,0,0,1-7.32,7.78A12,12,0,0,1,107.35,102.85Z"/></g></g></g></svg>